<svg id="Layer_1" data-name="Layer 1" xmlns="http://www.w3.org/2000/svg" xmlns:xlink="http://www.w3.org/1999/xlink" viewBox="0 0 3000 3500"><defs><style>.cls-1{fill:#c4c4c4;}.cls-2{fill:#fff;}.cls-3{fill:url(#linear-gradient);}.cls-4{fill:url(#linear-gradient-2);}.cls-5{fill:url(#linear-gradient-3);}.cls-6{fill:#609cd8;}.cls-7{fill:url(#linear-gradient-4);}.cls-8{fill:url(#linear-gradient-5);}.cls-9{fill:#b2b2b2;}.cls-10{fill:#e0e0e0;}.cls-11{fill:#2d2d2d;}.cls-12{fill:#ccc;}.cls-13{fill:#686868;}.cls-14{fill:#e0ded1;}.cls-15{fill:#bcb8a0;}.cls-16{fill:#79bc7d;}</style><linearGradient id="linear-gradient" x1="2113.35" y1="3020.03" x2="2333.21" y2="3020.03" gradientUnits="userSpaceOnUse"><stop offset="0" stop-color="#e6e6e6"/><stop offset="0.87" stop-color="#666"/></linearGradient><linearGradient id="linear-gradient-2" x1="1871.02" y1="3020.03" x2="2090.88" y2="3020.03" xlink:href="#linear-gradient"/><linearGradient id="linear-gradient-3" x1="1628.69" y1="3020.03" x2="1848.55" y2="3020.03" xlink:href="#linear-gradient"/><linearGradient id="linear-gradient-4" x1="765.63" y1="3020.03" x2="985.48" y2="3020.03" xlink:href="#linear-gradient"/><linearGradient id="linear-gradient-5" x1="523.3" y1="3020.03" x2="743.15" y2="3020.03" xlink:href="#linear-gradient"/></defs><title>Artboard 1</title><rect class="cls-1" x="484.85" y="2451.81" width="232.85" height="49.11"/><rect class="cls-1" x="2282.3" y="2451.81" width="232.85" height="49.11"/><rect class="cls-2" x="406.62" y="2492.46" width="2186.76" height="658.25"/><rect class="cls-3" x="2113.35" y="2910.11" width="219.85" height="219.85"/><rect class="cls-4" x="1871.02" y="2910.11" width="219.85" height="219.85"/><rect class="cls-5" x="1628.69" y="2910.11" width="219.85" height="219.85"/><rect class="cls-6" x="2355.68" y="2910.11" width="219.85" height="219.85"/><rect class="cls-7" x="765.63" y="2910.11" width="219.85" height="219.85"/><rect class="cls-8" x="523.3" y="2910.11" width="219.85" height="219.85"/><rect class="cls-2" x="525.29" y="2494.44" width="796.65" height="413.68"/><path class="cls-9" d="M1323.94,2910.11H523.3V2492.46h800.64Zm-796.65-4H1320V2496.42H527.29Z"/><rect class="cls-10" x="803.76" y="2574.8" width="239.71" height="267.57"/><rect class="cls-11" x="803.76" y="2632.27" width="239.71" height="99.22"/><rect class="cls-11" x="570.26" y="2648.18" width="706.72" height="53.11"/><rect class="cls-12" x="1043.47" y="2701.28" width="233.51" height="141.09"/><rect class="cls-6" x="1113.25" y="2749.54" width="93.96" height="44.57"/><rect class="cls-13" x="484.85" y="3150.71" width="232.85" height="49.11"/><rect class="cls-13" x="2282.3" y="3150.71" width="232.85" height="49.11"/><rect class="cls-2" x="406.62" y="516.13" width="2186.76" height="1943.61"/><circle class="cls-6" cx="799.19" cy="2242.06" r="101.11"/><circle class="cls-6" cx="1113.25" cy="2242.06" r="101.11"/><circle class="cls-6" cx="1427.3" cy="2242.06" r="101.11"/><rect class="cls-12" x="250" y="300.18" width="2500" height="1984.61" rx="50"/><rect class="cls-2" x="250" y="300.18" width="2500" height="1951.27" rx="50"/><rect class="cls-10" x="409.49" y="444.43" width="2181.01" height="1662.76" rx="100"/><rect x="525.9" y="559.95" width="1948.21" height="1431.71" rx="100"/><rect class="cls-14" x="2243.34" y="2284.79" width="179.73" height="126.64" rx="10"/><circle class="cls-15" cx="2333.21" cy="2348.11" r="35.22"/><rect class="cls-16" x="660.92" y="2774.66" width="74.34" height="38.91"/><rect class="cls-16" x="2169" y="2187" width="74.34" height="38.91"/><polygon class="cls-2" points="2478.04 3004.95 2478.04 2972.77 2453.1 2972.77 2453.1 3004.95 2465.57 3013.26 2478.04 3004.95"/><polygon class="cls-2" points="2452.82 3030.18 2452.82 3067.3 2478.33 3067.3 2478.33 3030.18 2465.57 3021.79 2452.82 3030.18"/><path class="cls-2" d="M2543.88,2976v-29.36h-19.57v-4.89H2406.9v4.89h-19.57V2976h19.57v9.78h-19.57v29.35h19.57v9.79h-19.57v29.35h19.57v9.78h-19.57v29.36h19.57v4.89h117.41v-4.89h19.57v-29.36h-19.57v-9.78h19.57v-29.35h-19.57v-9.79h19.57v-29.35h-19.57V2976Zm-55.52,92.15a7.62,7.62,0,0,1-2.29,5.73,8,8,0,0,1-5.81,2.22h-29.52a7.65,7.65,0,0,1-5.7-2.22,7.81,7.81,0,0,1-2.18-5.73v-36.55a8,8,0,0,1,3.65-7.17l10.89-7-10.6-6.59c-2.44-1.53-3.66-3.95-3.66-7.24v-31.68a7.61,7.61,0,0,1,8-7.95h29a7.62,7.62,0,0,1,8,7.95v31.68c0,3.29-1.25,5.71-3.73,7.24l-10.54,6.59,10.68,7a8,8,0,0,1,3.87,7.17Z"/></svg>