<svg id="Layer_1" data-name="Layer 1" xmlns="http://www.w3.org/2000/svg" viewBox="0 0 2000 500"><defs><style>.cls-1{fill:#fff;}.cls-2{fill:#3998D8}</style></defs><title>Artboard 1</title><path class="cls-1" d="M489.94,224.42q10.86,15.63,22.64,24.23t30.57,8.6a51.12,51.12,0,0,0,17.21-2.91,34,34,0,0,0,13.5-8.47,18.54,18.54,0,0,0,5.29-13.24q0-13.23-11.25-20.65T536.27,200.6q-25.95-5.29-41.3-18.4t-15.35-38q0-15.89,8.87-27.53a57.89,57.89,0,0,1,23.42-18,78,78,0,0,1,31.51-6.35q22,0,37.85,8.47a61.7,61.7,0,0,1,24.88,24.09L586,144.75a60.86,60.86,0,0,0-18-19.33Q557.18,118,542.62,118t-24.48,6.75a21.36,21.36,0,0,0-9.93,18.66q0,13.5,10.46,19.72t27.66,9.93A130.76,130.76,0,0,1,576,182.86a67,67,0,0,1,22.89,17.08q8.86,10.45,8.87,25.28,0,26.47-18,42.09t-49.5,15.62a88.85,88.85,0,0,1-39.05-8.47q-17.6-8.47-30.84-27.53Z"/><path class="cls-1" d="M659.62,111.13q-9.27,0-13.76-4.77t-4.5-12.44A17.91,17.91,0,0,1,645.86,82q4.5-5.3,13.76-5.3t13.77,4.77q4.5,4.76,4.5,12.44a17.91,17.91,0,0,1-4.5,11.91Q668.89,111.13,659.62,111.13Zm14,169.15H646.39v-139h27.26Z"/><path class="cls-1" d="M715,280.28V84.39h27.27V280.28Z"/><path class="cls-1" d="M799.39,111.13q-9.27,0-13.76-4.77t-4.5-12.44A17.91,17.91,0,0,1,785.63,82q4.5-5.3,13.76-5.3t13.77,4.77q4.5,4.76,4.5,12.44a17.91,17.91,0,0,1-4.5,11.91Q808.66,111.13,799.39,111.13Zm14,169.15H786.16v-139h27.26Z"/><path class="cls-1" d="M872.19,210.66a47.87,47.87,0,0,0,6.22,24.49,47.29,47.29,0,0,0,16.41,16.94,41.15,41.15,0,0,0,21.84,6.22q13.23,0,23-6.88a79.68,79.68,0,0,0,15.88-14.3l15.09,18.53A56.9,56.9,0,0,1,956.9,269,77.67,77.67,0,0,1,937,279.09a71.06,71.06,0,0,1-23.29,3.84,63.92,63.92,0,0,1-34.41-9.53,67.87,67.87,0,0,1-24.22-25.95q-8.88-16.41-8.87-36.79,0-20.65,8.87-36.93a68.12,68.12,0,0,1,24.22-25.81,63.92,63.92,0,0,1,34.41-9.53q19.32,0,34.41,7.81t22.5,20.25L955.57,185q-6.09-9-17.33-15.48T916.4,163a42,42,0,0,0-22.5,6.22A44.52,44.52,0,0,0,878,186.17,50.54,50.54,0,0,0,872.19,210.66Z"/><path class="cls-1" d="M1129.49,210.66q0,21.18-9.4,37.46a68.52,68.52,0,0,1-25.41,25.54,70.29,70.29,0,0,1-35.87,9.27,71,71,0,0,1-36-9.27,68.23,68.23,0,0,1-25.55-25.54q-9.39-16.29-9.39-37.46t9.39-37.46a68.31,68.31,0,0,1,25.55-25.54,71,71,0,0,1,36-9.27,70.29,70.29,0,0,1,35.87,9.27,68.59,68.59,0,0,1,25.41,25.54Q1129.48,189.49,1129.49,210.66Zm-27.79,0q.25-14-5.43-24.75a42.25,42.25,0,0,0-15.49-16.68,41.44,41.44,0,0,0-22-5.95,41.72,41.72,0,0,0-37.72,22.63q-5.7,10.72-5.43,24.75a49.25,49.25,0,0,0,5.43,24.49,42.78,42.78,0,0,0,15.62,16.8,41.31,41.31,0,0,0,22.1,6.09,40.66,40.66,0,0,0,22-6.09,43.2,43.2,0,0,0,15.49-16.8A49.47,49.47,0,0,0,1101.7,210.66Z"/><path class="cls-1" d="M1231.93,138.39q18.79,0,29.12,7.68a40.07,40.07,0,0,1,14.43,20.65,95.53,95.53,0,0,1,4.1,28.85v84.71h-27.27V197.42a57,57,0,0,0-2.64-18,24.18,24.18,0,0,0-9-12.44q-6.36-4.5-17.74-3.7a38.4,38.4,0,0,0-18.79,4.5,35.1,35.1,0,0,0-13,11.91,29.69,29.69,0,0,0-4.77,16.41v84.18h-27.26v-139h27.26v22q6.36-9.79,18.53-17.34A50.26,50.26,0,0,1,1231.93,138.39Z"/><path class="cls-1" d="M1323.52,95h116.74v27.53h-88.15v49h73.59V199h-73.59v53.74h88.15v27.53H1323.52Z"/><path class="cls-1" d="M1497.44,111.13q-9.27,0-13.77-4.77t-4.5-12.44a17.91,17.91,0,0,1,4.5-11.91q4.5-5.3,13.77-5.3t13.76,4.77q4.5,4.76,4.5,12.44a17.91,17.91,0,0,1-4.5,11.91Q1506.7,111.13,1497.44,111.13Zm14,169.15H1484.2v-139h27.27Z"/><path class="cls-1" d="M1571.82,303.31a63.24,63.24,0,0,0,19.85,9.79,78.28,78.28,0,0,0,23.3,3.71q21.43,0,32.82-10.46T1659.18,275V258a45.83,45.83,0,0,1-10.59,12,57.45,57.45,0,0,1-16.15,9.26,53.1,53.1,0,0,1-19.32,3.58,66.77,66.77,0,0,1-59.7-35q-9.14-16.41-9.13-37.32,0-21.18,9-37.46a66.83,66.83,0,0,1,24.49-25.54,66,66,0,0,1,34.54-9.27q15.89,0,28.19,7t18.67,15.22V141.3h27.26V271.81q0,24.87-9.92,40.1a58.31,58.31,0,0,1-26.21,22.24,88.44,88.44,0,0,1-35.34,7,97.62,97.62,0,0,1-29.52-4.63q-14.68-4.63-23.69-12Zm44.21-140a41.67,41.67,0,0,0-22.63,6.22,43.72,43.72,0,0,0-15.62,16.94,50.79,50.79,0,0,0-5.69,24.22,50,50,0,0,0,5.69,24.09,44.05,44.05,0,0,0,15.62,16.81,41.67,41.67,0,0,0,22.63,6.22q13.23,0,23.16-6.09a41.93,41.93,0,0,0,15.49-16.81,55.82,55.82,0,0,0,0-48.57,43.06,43.06,0,0,0-15.49-16.81Q1629.26,163.27,1616,163.28Z"/><path class="cls-1" d="M1797.36,138.39q18.78,0,29.11,7.68a40,40,0,0,1,14.43,20.65,95.21,95.21,0,0,1,4.1,28.85v84.71h-27.26V197.42a57,57,0,0,0-2.65-18,24.07,24.07,0,0,0-9-12.44q-6.35-4.5-17.73-3.7a38.44,38.44,0,0,0-18.8,4.5,35.26,35.26,0,0,0-13,11.91,29.69,29.69,0,0,0-4.77,16.41v84.18h-27.26V84.39h27.26v78.89q6.36-9.79,18.54-17.34A50.21,50.21,0,0,1,1797.36,138.39Z"/><path class="cls-1" d="M1926.53,280.28h-27.26V167.78h-28.86V141.3h28.86V105.83h27.26V141.3h32.3v26.48h-32.3Z"/><path class="cls-1" d="M536.42,411.15a26.71,26.71,0,0,1-6.64,5.22,42.89,42.89,0,0,1-21.51,5.68A37.13,37.13,0,0,1,489,417a36.42,36.42,0,0,1-13.62-14.24q-5.06-9.19-5.06-21.57a41.67,41.67,0,0,1,3.07-16.12,39.15,39.15,0,0,1,8.51-12.83,39.66,39.66,0,0,1,12.49-8.46,37.53,37.53,0,0,1,14.87-3,36.16,36.16,0,0,1,12.09,2,38.2,38.2,0,0,1,9.88,5.11,27.83,27.83,0,0,1,6.64,6.64L529.72,363a40.4,40.4,0,0,0-9.3-7.16A22.58,22.58,0,0,0,509.29,353a25.9,25.9,0,0,0-12.88,3.4,26.2,26.2,0,0,0-9.82,9.71,28.87,28.87,0,0,0-3.75,15q0,9.54,3.8,15.89a24.12,24.12,0,0,0,10.11,9.48,30.14,30.14,0,0,0,13.56,3.12A25.26,25.26,0,0,0,522.12,407a31.57,31.57,0,0,0,8.17-5.85Z"/><path class="cls-1" d="M565.37,341.45v33.94H605V341.45h12.26v79.46H605V387.2H565.37v33.71H553.11V341.45Z"/><path class="cls-1" d="M674.45,420.91H636.54V409.56h12.83V352.8H636.54V341.45h37.91V352.8H661.63v56.76h12.82Z"/><path class="cls-1" d="M726.1,341.45a22.21,22.21,0,0,1,11.7,3.23,24.27,24.27,0,0,1,11.69,21.18,24.77,24.77,0,0,1-3.18,12.42,24.47,24.47,0,0,1-8.51,8.92,21.91,21.91,0,0,1-11.7,3.29H706v30.42H693.75V341.45Zm-.22,37.23a9.4,9.4,0,0,0,5.56-1.76,13,13,0,0,0,4-4.65,13.51,13.51,0,0,0,1.53-6.41,12.88,12.88,0,0,0-3.29-9,10.26,10.26,0,0,0-7.83-3.64H706v25.43Z"/><path class="cls-1" d="M760.61,394.23V382.66h32.7v11.57Z"/><path class="cls-1" d="M859,398.21a20.06,20.06,0,0,1-3.57,11.58,25.75,25.75,0,0,1-9.65,8.34,31.31,31.31,0,0,1-27.25,0,25.68,25.68,0,0,1-9.65-8.34,20.06,20.06,0,0,1-3.57-11.58q0-7.5,3.8-12.21a28.4,28.4,0,0,1,8.68-7.32,21.85,21.85,0,0,1-7.37-5.9,14.67,14.67,0,0,1-3.18-9.65,19.1,19.1,0,0,1,3.29-10.84,23.6,23.6,0,0,1,9-7.89,28.51,28.51,0,0,1,25.26,0,23.87,23.87,0,0,1,8.91,7.89A19.18,19.18,0,0,1,857,363.13a14.8,14.8,0,0,1-1.65,7.21,17.1,17.1,0,0,1-4.14,5.05,25.53,25.53,0,0,1-5.11,3.29,25.8,25.8,0,0,1,9.37,8.29A19.54,19.54,0,0,1,859,398.21Zm-26.9,11.69a15.83,15.83,0,0,0,10.55-3.52,10.85,10.85,0,0,0,4.21-8.63,11.56,11.56,0,0,0-4.32-9.36,15.81,15.81,0,0,0-10.44-3.58,15.63,15.63,0,0,0-10.33,3.58,11.56,11.56,0,0,0-4.32,9.36,10.84,10.84,0,0,0,4.2,8.63A15.69,15.69,0,0,0,832.13,409.9Zm-12.72-46.43a9.12,9.12,0,0,0,3.75,7.49,15.19,15.19,0,0,0,18,0,9.17,9.17,0,0,0,3.69-7.49,9.68,9.68,0,0,0-3.57-7.55,14.95,14.95,0,0,0-18.28,0A9.69,9.69,0,0,0,819.41,363.47Z"/><path class="cls-1" d="M908,341.45H958v11.8h-37.8v21h31.55v11.81H920.22v23H958v11.81H908Z"/><path class="cls-1" d="M1005,360.29q7.38,0,11.81,3.35a18.44,18.44,0,0,1,6.36,9.14,24.45,24.45,0,0,1,4.65-5.73,27.4,27.4,0,0,1,7.15-4.83,20.33,20.33,0,0,1,8.74-1.93q7.72,0,12,3.35a17.78,17.78,0,0,1,6.07,9,42,42,0,0,1,1.76,12.54v35.76h-11.81V385.83q0-6.57-2.49-10.67t-9.43-4.08a14.91,14.91,0,0,0-10.84,4.14,13.48,13.48,0,0,0-4.25,10v35.64H1013v-35.3a18.55,18.55,0,0,0-2.72-10.45q-2.73-4.08-9-4.08a15.34,15.34,0,0,0-7.72,1.93,14.58,14.58,0,0,0-5.34,5.05,13.07,13.07,0,0,0-1.93,7v35.87h-11.8v-59.6h11.8v9.54a26.21,26.21,0,0,1,7.67-7.32A19.72,19.72,0,0,1,1005,360.29Z"/><path class="cls-1" d="M1119.89,397.19V361.31h11.69v59.6h-11.69v-9.54a24,24,0,0,1-7.66,7.44,21.92,21.92,0,0,1-12.09,3.24q-9.32,0-15.1-6.36t-5.79-17.6V361.31h11.69v33.61a24.26,24.26,0,0,0,1.42,8.39,12.45,12.45,0,0,0,12.55,8.52,15.54,15.54,0,0,0,10.55-3.86Q1119.9,404.11,1119.89,397.19Z"/><path class="cls-1" d="M1147.93,420.91v-84h11.69v84Z"/><path class="cls-1" d="M1230.68,361.31v59.6h-11.8v-9.19a27.92,27.92,0,0,1-8.06,7,23,23,0,0,1-12.38,3.3,24.76,24.76,0,0,1-13.67-4,28,28,0,0,1-9.82-11,34.53,34.53,0,0,1-3.64-16.12,33.41,33.41,0,0,1,3.75-16.06,27.54,27.54,0,0,1,10.33-10.9,28.75,28.75,0,0,1,15-3.91,21.44,21.44,0,0,1,10.95,2.72,25.88,25.88,0,0,1,7.55,6.36v-7.84Zm-29.51,49.95a17.07,17.07,0,0,0,9.54-2.67,18,18,0,0,0,6.35-7.26,23.22,23.22,0,0,0,2.27-10.39,22.61,22.61,0,0,0-2.27-10.22,18.1,18.1,0,0,0-6.35-7.2,18.14,18.14,0,0,0-18.85-.06,17.79,17.79,0,0,0-6.36,7.15,22.84,22.84,0,0,0-2.27,10.33,23.22,23.22,0,0,0,2.27,10.39,18,18,0,0,0,6.36,7.26A16.66,16.66,0,0,0,1201.17,411.26Z"/><path class="cls-1" d="M1266.1,420.91h-11.69V372.67H1242V361.31h12.37V346.1h11.69v15.21H1280v11.36H1266.1Z"/><path class="cls-1" d="M1347.15,391.06a31.53,31.53,0,0,1-4,16.06,29.37,29.37,0,0,1-10.9,10.95,30.13,30.13,0,0,1-15.38,4,30.49,30.49,0,0,1-15.44-4,29.36,29.36,0,0,1-11-10.95,34,34,0,0,1,0-32.13,29.36,29.36,0,0,1,11-10.95,30.48,30.48,0,0,1,15.44-4,30.13,30.13,0,0,1,15.38,4,29.37,29.37,0,0,1,10.9,10.95A31.54,31.54,0,0,1,1347.15,391.06Zm-11.92,0a21.48,21.48,0,0,0-2.32-10.62,18.16,18.16,0,0,0-6.65-7.15,17.79,17.79,0,0,0-9.42-2.55,17.87,17.87,0,0,0-16.17,9.7,21.37,21.37,0,0,0-2.33,10.62,21.11,21.11,0,0,0,2.33,10.5,18.37,18.37,0,0,0,6.69,7.2,17.7,17.7,0,0,0,9.48,2.61,17.4,17.4,0,0,0,9.42-2.61,18.57,18.57,0,0,0,6.65-7.2A21.21,21.21,0,0,0,1335.23,391.06Z"/><path class="cls-1" d="M1393.24,373.91a14.22,14.22,0,0,0-2.78-1,14.8,14.8,0,0,0-10.62,1.47,16.11,16.11,0,0,0-5.84,5.34,14.42,14.42,0,0,0-2.33,8.23v32.92h-11.81v-59.6h11.81v11.24a21.89,21.89,0,0,1,7.55-9,18.28,18.28,0,0,1,10.61-3.51,14.75,14.75,0,0,1,6.47,1.13Z"/><rect class="cls-1" x="145.77" y="111.4" width="136.08" height="278.34"/><polygon class="cls-2" points="241.33 217.28 241.33 146.28 186.3 146.28 186.3 217.28 213.81 235.63 241.33 217.28"/><polygon class="cls-2" points="185.66 272.94 185.66 354.85 241.96 354.85 241.96 272.94 213.81 254.44 185.66 272.94"/><path class="cls-2" d="M386.61,153.41V88.64H343.43V77.85H84.35V88.64H41.17v64.77H84.35V175H41.17v64.77H84.35v21.59H41.17v64.77H84.35v21.59H41.17v64.77H84.35v10.8H343.43v-10.8h43.18V347.72H343.43V326.13h43.18V261.36H343.43V239.77h43.18V175H343.43V153.41ZM264.1,356.75A16.84,16.84,0,0,1,259,369.4a17.67,17.67,0,0,1-12.81,4.9H181.08q-7.76,0-12.57-4.9a17.25,17.25,0,0,1-4.83-12.65V276.11q0-10.61,8.07-15.82l24-15.49-23.4-14.55q-8.06-5.06-8.06-16v-69.9a16.79,16.79,0,0,1,17.55-17.55h64a16.81,16.81,0,0,1,17.56,17.55v69.9q0,10.91-8.23,16L232,244.8l23.56,15.49a17.76,17.76,0,0,1,8.54,15.82Z"/></svg>
