<svg id="Layer_1" data-name="Layer 1" xmlns="http://www.w3.org/2000/svg" viewBox="0 0 500 500">
    <defs>
        <style>.cls-1{fill:none;}.cls-2{fill:#606060;}.cls-3{stroke:#000;stroke-miterlimit:10;}</style>
    </defs>
    <title>Artboard 1</title>
    <path class="cls-1"
          d="M250,179.94A70.06,70.06,0,0,0,179.94,250h0a70.06,70.06,0,0,1,140.12,0h0A70.06,70.06,0,0,0,250,179.94Z"/>
    <path class="cls-2"
          d="M313.2,0a8.72,8.72,0,0,1-8.72,8.72A8.71,8.71,0,0,1,295.76,0H204.24V.12a8.72,8.72,0,0,1-8.72,8.72A8.73,8.73,0,0,1,186.8.12s0-.08,0-.12H0V360H19.6v30.23H0V500H500V0Zm6.86,250a70.06,70.06,0,0,1-140.12,0h0a70.06,70.06,0,0,1,140.12,0Z"/>
    <circle class="cls-1" cx="250" cy="250" r="45.76"/>
    <path class="cls-3"
          d="M250,179.94A70.06,70.06,0,1,0,320.06,250,70.06,70.06,0,0,0,250,179.94Zm0,115.82A45.76,45.76,0,1,1,295.76,250,45.76,45.76,0,0,1,250,295.76Z"/>
    <path class="cls-3"
          d="M250,320.06A70.06,70.06,0,0,1,179.94,250h0a70.06,70.06,0,0,0,140.12,0h0A70.06,70.06,0,0,1,250,320.06Z"/>
    <path class="cls-2" d="M204.24.12V0H186.81s0,.08,0,.12"/>
    <rect class="cls-3" x="227.91" y="12.91" width="44.19" height="134.88" rx="22.09"/>
</svg>