<svg id="Layer_1" data-name="Layer 1" xmlns="http://www.w3.org/2000/svg" viewBox="0 0 500 500"><defs><style>.cls-1{fill:#b3b3b3;}.cls-2{fill:#fff;}</style></defs><title>Artboard 1</title><rect class="cls-1" x="7.61" y="7.61" width="109.79" height="109.79" rx="12"/><rect class="cls-1" x="382.61" y="7.61" width="109.79" height="109.79" rx="12"/><rect class="cls-1" x="382.61" y="382.61" width="109.79" height="109.79" rx="12"/><rect class="cls-1" x="7.61" y="382.61" width="109.79" height="109.79" rx="12"/><rect class="cls-1" x="132.61" y="7.61" width="109.79" height="109.79" rx="12"/><rect class="cls-1" x="257.61" y="7.61" width="109.79" height="109.79" rx="12"/><rect class="cls-1" x="7.61" y="132.61" width="109.79" height="109.79" rx="12"/><rect class="cls-1" x="132.61" y="132.61" width="109.79" height="109.79" rx="12"/><rect class="cls-1" x="257.61" y="132.61" width="109.79" height="109.79" rx="12"/><rect class="cls-1" x="382.61" y="132.61" width="109.79" height="109.79" rx="12"/><rect class="cls-1" x="7.61" y="257.61" width="109.79" height="109.79" rx="12"/><rect class="cls-1" x="132.61" y="257.61" width="109.79" height="109.79" rx="12"/><rect class="cls-1" x="257.61" y="257.61" width="109.79" height="109.79" rx="12"/><rect class="cls-1" x="382.61" y="257.61" width="109.79" height="109.79" rx="12"/><rect class="cls-1" x="132.61" y="382.61" width="109.79" height="109.79" rx="12"/><rect class="cls-1" x="257.61" y="382.61" width="109.79" height="109.79" rx="12"/><path class="cls-2" d="M40.85,87.5h18.4V40.7H45V35.3c7.5-1,12.3-2.5,16.4-4.7h6.2V87.5h16.6v6.9H40.85Z"/><path class="cls-2" d="M165.3,90.1c21.6-19.1,33.4-30.3,33.4-40.9,0-7.3-4.4-12.4-13.8-12.4-6,0-11.2,3.4-15.3,7.6l-4.8-4.7c5.8-5.8,12.1-9.7,21.1-9.7,12.8,0,20.8,7.5,20.8,18.8,0,12-12,23.9-29.3,39.6,4-.3,8.1-.5,11.9-.5h20.9V95H165.3Z"/><path class="cls-2" d="M289.45,86.6l4.2-5.4A25.81,25.81,0,0,0,312,88.7c8.7,0,15.2-4.5,15.2-11.6,0-7.6-6.4-12.7-23.1-12.7V58.1c15.1,0,20.9-5.2,20.9-11.9,0-6.1-5.3-10-13-10a24.1,24.1,0,0,0-15.7,6.4l-4.4-5.2a30.93,30.93,0,0,1,20.4-8c12,0,21.1,5.9,21.1,16.2,0,7.7-5.7,12.6-13.6,15.2v.4c8.5,1.8,15.8,7.4,15.8,16.2,0,11.3-10.4,18.2-23.1,18.2C301.45,95.6,294.15,91.3,289.45,86.6Z"/><path class="cls-2" d="M413.05,62.5c0-21.1,12.3-34,29.4-34a24.58,24.58,0,0,1,18,8l-4.8,5.3a17.59,17.59,0,0,0-13.2-5.9c-12.5,0-20.7,10.1-20.7,26.4,0,16.5,8.2,26.8,20.7,26.8,6,0,10.6-2.6,14.7-7.2L462,87a25.35,25.35,0,0,1-20.3,9.5C425.45,96.5,413.05,83.9,413.05,62.5Z"/><path class="cls-2" d="M70.1,175.5c.1-3.5.3-7.8.5-11.3h-.5c-2.1,3.1-4.4,6.2-6.5,9.3L46.4,195.1H87.8v6.7H37.2v-5.5L69,155.6h8.9v63.8H70.1Z"/><path class="cls-2" d="M164.2,211.3l4.1-5.5c4.3,3.8,9.5,7.3,18,7.3,8.9,0,16.1-5.6,16.1-14.5s-6.2-13.9-15.6-13.9c-5.3,0-8.5,1.3-13,3.8l-4.4-2.8,2.1-30.7h36.1v7.2H178.8L177.1,181a27.33,27.33,0,0,1,11.8-2.6c12.2,0,21.9,6.2,21.9,20S199.4,220,187.2,220C175.8,220,169.1,215.7,164.2,211.3Z"/><path class="cls-2" d="M289.65,189.9c0-25.6,12.8-35.5,26.7-35.5a25.35,25.35,0,0,1,17.8,6.8l-4.6,5.2a18.81,18.81,0,0,0-12.7-5.1c-10.4,0-19.4,7.3-19.4,28.6,0,15.7,6,24.2,16.6,24.2,7.5,0,13.4-5.6,13.4-14,0-8.7-4.7-13.5-13.5-13.5-5.1,0-11.2,2.5-16.7,9l-.3-6.5c5.3-5.3,11.9-8.7,18.5-8.7,11.8,0,19.9,6.6,19.9,19.7,0,12.2-9.9,20.5-21.3,20.5C300.15,220.6,289.65,210.4,289.65,189.9Z"/><path class="cls-2" d="M415.35,154.7h16.2c19.7,0,30.4,11.7,30.4,32.5s-10.7,33.1-30,33.1h-16.6ZM431,213.4c14.9,0,22.3-9.6,22.3-26.2s-7.4-25.6-22.3-25.6h-7.2v51.8Z"/><path class="cls-2" d="M76.1,287.8H39.4v-7.2H85.6v5.1c-16.9,19.3-21,33.7-22,58.7H54.9C56,320.3,61.6,305.6,76.1,287.8Z"/><path class="cls-2" d="M164.8,328.1c0-8.8,6.8-13.8,13.7-17v-.4c-5.3-3.3-9.7-8.2-9.7-14.9,0-9.8,8.3-16.4,19.7-16.4,12.5,0,19.8,7.1,19.8,17,0,6-4.4,11.5-9.7,15.2v.4c7,3.5,12.5,7.5,12.5,16.6,0,9.5-8.3,17-22.9,17C173.8,345.6,164.8,338.2,164.8,328.1Zm38.4.2c0-8.8-8.9-11.1-20-14.8-6.2,3.3-10.9,7.4-10.9,13.8,0,7,6.3,12.1,16.1,12.1C197.8,339.4,203.2,334.9,203.2,328.3Zm-2.1-31.5c0-6.2-4.5-11.2-12.8-11.2-7,0-11.9,4-11.9,10.2,0,7.6,7.3,10.8,16.8,13.8C198.4,305.8,201.1,301.5,201.1,296.8Z"/><path class="cls-2" d="M290.85,339.9l4.6-5.2a18.82,18.82,0,0,0,12.7,5c10.3,0,19.4-7.3,19.4-28.6,0-15.7-6.1-24.1-16.6-24.1-7.6,0-13.5,5.5-13.5,13.9,0,8.7,4.8,13.5,13.6,13.5,5,0,11.1-2.5,16.6-9l.3,6.5c-5.2,5.4-11.9,8.7-18.5,8.7-11.8,0-19.8-6.6-19.8-19.7,0-12.2,9.9-20.5,21.2-20.5,13.9,0,24.5,10.2,24.5,30.7,0,25.6-12.9,35.5-26.7,35.5A25.75,25.75,0,0,1,290.85,339.9Z"/><path class="cls-2" d="M417.85,280.7h40.6v7.1h-32.2v20.5h27.2v7.1h-27.2v23.8h33.2v7.1h-41.6Z"/><path class="cls-2" d="M57.7,404.7h9.6l22.1,65.6h-9L69.1,433.7c-2.3-7.3-4.5-14.5-6.5-22.1h-.4c-2.1,7.6-4.2,14.8-6.5,22.1L44.2,470.3H35.6ZM47.3,443.6H77.4v6.8H47.3Z"/><path class="cls-2" d="M165.85,437.3c0-21.4,8.7-32.9,22.9-32.9s22.9,11.5,22.9,32.9c0,21.2-8.7,33.3-22.9,33.3S165.85,458.5,165.85,437.3Zm38.1,0c0-18.3-6.3-26.2-15.2-26.2s-15.2,7.9-15.2,26.2,6.3,26.6,15.2,26.6S204,455.6,204,437.3Zm-21.4-.7a6.21,6.21,0,1,1,12.4,0c0,4.2-2.9,6.7-6.2,6.7S182.55,440.8,182.55,436.6Z"/><path class="cls-2" d="M290.1,403.85h18.6c13.4,0,22.5,4.5,22.5,16,0,6.5-3.7,12.3-11.5,14.3v.4c9.6,1.5,15.2,6.7,15.2,15.7,0,12.9-10,19.2-24.7,19.2H290.1Zm17.2,27.6c11.2,0,15.7-3.6,15.7-10.9,0-7.1-5.2-9.7-15.3-9.7h-9.3v20.6Zm1.7,31c11.2,0,17.7-3.7,17.7-12.6,0-8.1-6.2-11.4-17.7-11.4H298.4v24Z"/><path class="cls-2" d="M418.5,404.7h40.3v7.1H426.9v22.1h27V441h-27v29.3h-8.4Z"/></svg>