<svg id="Layer_1" data-name="Layer 1" xmlns="http://www.w3.org/2000/svg" viewBox="0 0 1600 500"><defs><style>.cls-1{fill:#c44b4b;}.cls-2{fill:#fff;}.cls-3{fill:#1da9ce;}</style></defs><title>Artboard 1</title><polygon points="237.48 183.3 237.48 120.53 188.84 120.53 188.84 183.3 213.16 199.51 237.48 183.3"/><polygon points="188.28 232.5 188.28 304.91 238.04 304.91 238.04 232.5 213.16 216.15 188.28 232.5"/><path d="M365.91,126.84V69.58H327.74V60h-229v9.54H60.55v57.26H98.72v19.08H60.55v57.26H98.72v19.08H60.55v57.26H98.72V298.6H60.55v57.26H98.72v9.54h229v-9.54h38.17V298.6H327.74V279.52h38.17V222.26H327.74V203.18h38.17V145.92H327.74V126.84ZM257.61,306.59a14.89,14.89,0,0,1-4.47,11.18,15.63,15.63,0,0,1-11.33,4.33H184.22a14.89,14.89,0,0,1-11.11-4.33,15.24,15.24,0,0,1-4.26-11.18V235.3q0-9.37,7.13-14l21.24-13.7-20.69-12.86q-7.12-4.47-7.12-14.12V118.86a14.84,14.84,0,0,1,15.51-15.52h56.61a14.84,14.84,0,0,1,15.52,15.52v61.78q0,9.65-7.27,14.12l-20.55,12.86,20.83,13.7a15.7,15.7,0,0,1,7.55,14Z"/><polygon class="cls-1" points="274.89 220.47 274.89 157.7 226.24 157.7 226.24 220.47 250.56 236.68 274.89 220.47"/><polygon class="cls-1" points="225.68 269.67 225.68 342.08 275.44 342.08 275.44 269.67 250.56 253.31 225.68 269.67"/><path class="cls-1" d="M403.31,164V106.75H365.14V97.21h-229v9.54H98V164h38.17v19.08H98v57.26h38.17v19.08H98v57.26h38.17v19.08H98V393h38.17v9.54h229V393h38.17V335.77H365.14V316.69h38.17V259.43H365.14V240.35h38.17V183.09H365.14V164ZM295,343.75a14.9,14.9,0,0,1-4.47,11.19,15.62,15.62,0,0,1-11.32,4.33H221.63a14.92,14.92,0,0,1-11.12-4.33,15.29,15.29,0,0,1-4.26-11.19V272.47q0-9.37,7.13-14l21.25-13.7-20.69-12.86q-7.12-4.47-7.13-14.12V156a14.84,14.84,0,0,1,15.52-15.52h56.61A14.84,14.84,0,0,1,294.45,156v61.78q0,9.65-7.26,14.12l-20.55,12.86,20.83,13.7a15.69,15.69,0,0,1,7.54,14Z"/><rect class="cls-2" x="228.41" y="164.26" width="120.29" height="246.04"/><polygon class="cls-3" points="312.88 257.86 312.88 195.09 264.23 195.09 264.23 257.86 288.55 274.07 312.88 257.86"/><polygon class="cls-3" points="263.67 307.06 263.67 379.47 313.44 379.47 313.44 307.06 288.55 290.7 263.67 307.06"/><path class="cls-3" d="M441.3,201.4V144.14H403.13V134.6h-229v9.54H135.94V201.4h38.17v19.08H135.94v57.26h38.17v19.08H135.94v57.26h38.17v19.08H135.94v57.26h38.17V440h229v-9.54H441.3V373.16H403.13V354.08H441.3V296.82H403.13V277.74H441.3V220.48H403.13V201.4ZM333,381.14a14.9,14.9,0,0,1-4.47,11.19,15.64,15.64,0,0,1-11.32,4.33H259.62a14.92,14.92,0,0,1-11.11-4.33,15.26,15.26,0,0,1-4.27-11.19V309.85q0-9.36,7.13-14l21.25-13.7-20.69-12.86q-7.12-4.47-7.13-14.12V193.42a14.84,14.84,0,0,1,15.52-15.52h56.61a14.85,14.85,0,0,1,15.52,15.52V255.2q0,9.65-7.27,14.12l-20.55,12.86,20.83,13.7a15.68,15.68,0,0,1,7.54,14Z"/><path d="M564.55,285.32a39.51,39.51,0,0,1-21.24-5.93A44.4,44.4,0,0,1,528,263.65,42.26,42.26,0,0,1,522.28,242v-9.92a1,1,0,0,1,1.08-1.08h24.15c.57,0,.86.36.86,1.08V242a17.2,17.2,0,0,0,4.75,12.18,15.32,15.32,0,0,0,22.86-.1A17.34,17.34,0,0,0,580.72,242q0-8-10.35-13.8-3.45-2-10.78-6t-13.8-7.76q-11.87-6.9-17.58-17.36a48.42,48.42,0,0,1-5.71-23.62,41,41,0,0,1,5.82-21.67,43.43,43.43,0,0,1,15.42-15.2,41.44,41.44,0,0,1,41.83.11A43.35,43.35,0,0,1,600.88,152a41.14,41.14,0,0,1,5.72,21.45v17.69a.76.76,0,0,1-.86.86H581.58a.76.76,0,0,1-.86-.86l-.21-17.69a16.66,16.66,0,0,0-4.75-12.29,15.33,15.33,0,0,0-11.21-4.74,15.09,15.09,0,0,0-11.43,5.07,16.93,16.93,0,0,0-4.75,12,21.69,21.69,0,0,0,3,11.86q3,4.76,11,9.06,1.08.65,4.21,2.27c2.08,1.07,4.34,2.3,6.79,3.66s4.64,2.56,6.58,3.56,3.12,1.65,3.55,1.94a51.45,51.45,0,0,1,17,14.77q6.26,8.73,6.25,21.46a43,43,0,0,1-21,37.63A40.74,40.74,0,0,1,564.55,285.32Z"/><path d="M623,283.17a1,1,0,0,1-1.08-1.08l.21-148.15a.77.77,0,0,1,.87-.86h24.15a.76.76,0,0,1,.86.86l.22,148.15q0,1.08-.87,1.08Z"/><path d="M670.21,283.17c-.58,0-.86-.36-.86-1.08l.21-147.93a1,1,0,0,1,1.08-1.08h23.94a1,1,0,0,1,1.07,1.08l-.21,122.48h44.42a1,1,0,0,1,1.08,1.08v24.37a1,1,0,0,1-1.08,1.08Z"/><path d="M756,283.17a1,1,0,0,1-1.08-1.08l.22-148.15a.76.76,0,0,1,.86-.86h24.15a.77.77,0,0,1,.87.86l.21,148.15c0,.72-.29,1.08-.86,1.08Z"/><path d="M839.92,285.32a39.92,39.92,0,0,1-21.46-5.93,43.29,43.29,0,0,1-15.2-15.85,44.3,44.3,0,0,1-5.61-22.21l.22-67.28a43.63,43.63,0,0,1,5.49-21.67,42.85,42.85,0,0,1,15.1-15.74,41.91,41.91,0,0,1,42.8-.11A43.33,43.33,0,0,1,882,174.05V184a.76.76,0,0,1-.87.86H857a.76.76,0,0,1-.86-.86v-9.92a17.82,17.82,0,0,0-4.64-12.29,14.85,14.85,0,0,0-11.53-5.18q-7.77,0-11.86,5.29a19.27,19.27,0,0,0-4.1,12.18v67.28q0,8,4.63,12.94a14.91,14.91,0,0,0,11.33,5,14.47,14.47,0,0,0,11.53-5.5,18.73,18.73,0,0,0,4.64-12.4v-9.92a.76.76,0,0,1,.86-.86h24.37a.76.76,0,0,1,.86.86v9.92a43.75,43.75,0,0,1-5.71,22.21,44.55,44.55,0,0,1-15.21,15.85A39.37,39.37,0,0,1,839.92,285.32Z"/><path d="M937.82,285.32a39.57,39.57,0,0,1-21.25-5.93,45.45,45.45,0,0,1-15.41-15.74A41.59,41.59,0,0,1,895.33,242l.22-68.36a41.68,41.68,0,0,1,5.71-21.56,43.7,43.7,0,0,1,15.42-15.53,40.34,40.34,0,0,1,21.14-5.82A39.63,39.63,0,0,1,959,136.53a44.33,44.33,0,0,1,15.2,15.53,41.68,41.68,0,0,1,5.72,21.56l.21,68.36a42.35,42.35,0,0,1-5.71,21.67,44.57,44.57,0,0,1-15.31,15.74A39.56,39.56,0,0,1,937.82,285.32Zm0-26.09A15,15,0,0,0,949.14,254,17.24,17.24,0,0,0,954,242l-.22-68.36a17.32,17.32,0,0,0-4.52-12.08,14.85,14.85,0,0,0-11.43-5,15.39,15.39,0,0,0-11.43,4.86,16.68,16.68,0,0,0-4.75,12.18V242a17.15,17.15,0,0,0,4.75,12.18A15.09,15.09,0,0,0,937.82,259.23Z"/><path d="M998.41,283.17c-1.15,0-1.73-.5-1.73-1.51l-.21-146.86a1.52,1.52,0,0,1,1.72-1.72h19.41L1054,218,1053,134.8c0-1.14.64-1.72,1.94-1.72h21.35c.86,0,1.29.58,1.29,1.72l.22,147.07c0,.87-.36,1.3-1.08,1.3h-19l-37.31-79.36,1.51,77.63c0,1.15-.64,1.73-1.94,1.73Z"/><path d="M1129.3,283.17c-.58,0-.86-.36-.86-1.08l.21-148.15a.77.77,0,0,1,.87-.86h69.22c.57,0,.86.36.86,1.08v24.15a.76.76,0,0,1-.86.86h-44.21v33.64h44.21a.77.77,0,0,1,.86.87l.22,24.36a.77.77,0,0,1-.87.87h-44.42v37.73H1199q.87,0,.87,1.08V282.3a.77.77,0,0,1-.87.87Z"/><path d="M1220.09,283.17a1,1,0,0,1-1.08-1.08l.21-148.15a.77.77,0,0,1,.87-.86h24.15a.76.76,0,0,1,.86.86l.22,148.15c0,.72-.29,1.08-.86,1.08Z"/><path d="M1303.75,285.32a39.63,39.63,0,0,1-21.13-5.82,44,44,0,0,1-15.2-15.63A42.7,42.7,0,0,1,1261.7,242V173.62a41.92,41.92,0,0,1,5.72-21.46,43.69,43.69,0,0,1,15.31-15.63,39.75,39.75,0,0,1,21-5.82,41.14,41.14,0,0,1,21.46,5.71,42.25,42.25,0,0,1,15.2,15.42,42.72,42.72,0,0,1,5.61,21.78v9.92c0,.58-.36.86-1.08.86h-24.15a.75.75,0,0,1-.86-.86v-8.2a20.09,20.09,0,0,0-4.64-13.58,14.62,14.62,0,0,0-11.54-5.39,14.82,14.82,0,0,0-11.1,5.17,17.09,17.09,0,0,0-4.85,12.08V242a17.19,17.19,0,0,0,4.74,12.18,14.86,14.86,0,0,0,11.21,5.07,15.14,15.14,0,0,0,11.54-5,17.3,17.3,0,0,0,4.64-12.29V231.41h-15.1a1,1,0,0,1-1.08-1.08V206.18a1,1,0,0,1,1.08-1.08h40.33c.57,0,.86.36.86,1.08V242a42.79,42.79,0,0,1-5.71,21.89,44,44,0,0,1-15.21,15.63A40,40,0,0,1,1303.75,285.32Z"/><path d="M1362.19,283.17c-.57,0-.86-.36-.86-1.08l.22-148.15c0-.57.35-.86,1.07-.86h23.94c.72,0,1.08.29,1.08.86l-.22,58.66h32.35V133.94a.76.76,0,0,1,.86-.86h23.94c.72,0,1.08.29,1.08.86l.43,148.15a1,1,0,0,1-1.08,1.08h-24.15a1,1,0,0,1-1.08-1.08v-63.4h-32.35v63.4c0,.72-.29,1.08-.86,1.08Z"/><path d="M1485.33,283.17q-.87,0-.87-1.08V159.17h-28a1,1,0,0,1-1.08-1.08l.22-24.15a.76.76,0,0,1,.86-.86h81.94c.72,0,1.08.29,1.08.86v24.15c0,.72-.29,1.08-.86,1.08h-28.25l.22,122.92q0,1.08-.87,1.08Z"/><path d="M543.41,390.35a19.93,19.93,0,0,1-10.72-3,21.74,21.74,0,0,1-7.61-7.92,22.18,22.18,0,0,1-2.8-11.11l.11-33.64a21.87,21.87,0,0,1,2.75-10.84,21.42,21.42,0,0,1,7.55-7.87,21,21,0,0,1,21.4-.05,21.66,21.66,0,0,1,10.35,18.76v5a.38.38,0,0,1-.43.43H551.93a.38.38,0,0,1-.43-.43v-5a8.91,8.91,0,0,0-2.32-6.15,7.43,7.43,0,0,0-5.77-2.58,7.07,7.07,0,0,0-5.93,2.64,9.68,9.68,0,0,0-2,6.09v33.64a9.11,9.11,0,0,0,2.31,6.47,7.48,7.48,0,0,0,5.66,2.48,7.25,7.25,0,0,0,5.77-2.75,9.34,9.34,0,0,0,2.32-6.2v-5a.38.38,0,0,1,.43-.43h12.19a.38.38,0,0,1,.43.43v5a21.91,21.91,0,0,1-2.86,11.11,22.29,22.29,0,0,1-7.6,7.92A19.7,19.7,0,0,1,543.41,390.35Z"/><path d="M572.85,389.27c-.29,0-.43-.18-.43-.54l.11-74.07c0-.29.17-.44.53-.44h12c.36,0,.54.15.54.44L585.46,344h16.18V314.66a.38.38,0,0,1,.43-.44h12c.36,0,.54.15.54.44l.21,74.07a.48.48,0,0,1-.54.54H602.18a.48.48,0,0,1-.54-.54V357H585.46v31.7c0,.36-.14.54-.43.54Z"/><path d="M624.17,389.27a.48.48,0,0,1-.54-.54l.11-74.07a.38.38,0,0,1,.43-.44h12.08a.39.39,0,0,1,.43.44l.11,74.07c0,.36-.15.54-.43.54Z"/><path d="M646.81,389.27a.48.48,0,0,1-.54-.54l.22-74.07a.38.38,0,0,1,.43-.44h20.7q9.93,0,15.69,6t5.77,16.39a27.56,27.56,0,0,1-3,13.26,22.37,22.37,0,0,1-7.87,8.63,19.67,19.67,0,0,1-10.57,3h-8.19v27.17a.48.48,0,0,1-.54.54Zm12.62-40.76h8.19a7.4,7.4,0,0,0,6-3.29,13.7,13.7,0,0,0,2.53-8.57,10.37,10.37,0,0,0-2.26-6.9,7.76,7.76,0,0,0-6.26-2.69l-8.19.1Z"/><path d="M697.27,358.11c-.36,0-.54-.14-.54-.43V345.92c0-.28.18-.43.54-.43h20.81c.36,0,.54.15.54.43v11.76c0,.29-.18.43-.54.43Z"/><path d="M748.27,390.35a19.58,19.58,0,0,1-10.51-3,22.81,22.81,0,0,1-7.71-7.82,20.34,20.34,0,0,1-2.91-10.67v-6.68a20.89,20.89,0,0,1,1.72-8.47,23.56,23.56,0,0,1,4.64-6.95,19.11,19.11,0,0,1-3.72-6.1,20.62,20.62,0,0,1-1.35-7.49,20,20,0,0,1,9.81-17.47,19.32,19.32,0,0,1,10-2.69,18.73,18.73,0,0,1,10,2.75,21.08,21.08,0,0,1,7.17,7.28,19.48,19.48,0,0,1,2.69,10.13,20.24,20.24,0,0,1-1.35,7.44,20.64,20.64,0,0,1-3.72,6.15,21.37,21.37,0,0,1,4.59,6.9,21.9,21.9,0,0,1,1.67,8.52v6.68a21,21,0,0,1-2.86,10.73,22.08,22.08,0,0,1-7.6,7.82A19.84,19.84,0,0,1,748.27,390.35Zm0-12.94a7.45,7.45,0,0,0,5.66-2.48,8.5,8.5,0,0,0,2.32-6v-6.68a8.57,8.57,0,0,0-2.32-6,7.36,7.36,0,0,0-5.66-2.53,7.58,7.58,0,0,0-5.71,2.48,8.4,8.4,0,0,0-2.37,6v6.68a8.44,8.44,0,0,0,2.37,6A7.54,7.54,0,0,0,748.27,377.41Zm0-37a6.39,6.39,0,0,0,4.8-2.11,7.16,7.16,0,0,0,2-5.12,7.33,7.33,0,0,0-2-5.17,6.3,6.3,0,0,0-4.8-2.16,6.47,6.47,0,0,0-4.85,2.16,7.21,7.21,0,0,0-2,5.17,7.11,7.11,0,0,0,2,5.07A6.47,6.47,0,0,0,748.27,340.43Z"/><path d="M793.88,389.27c-.29,0-.43-.18-.43-.54l.11-74.07a.38.38,0,0,1,.43-.44H828.6c.28,0,.43.18.43.54v12.08a.38.38,0,0,1-.43.43H806.49v16.82H828.6a.39.39,0,0,1,.43.43l.11,12.19a.39.39,0,0,1-.43.43H806.49V376h22.22c.28,0,.43.18.43.54v12.29a.38.38,0,0,1-.43.43Z"/><path d="M839.16,389.27c-.28,0-.43-.18-.43-.54l.22-74.07a.38.38,0,0,1,.43-.44h13.15a1,1,0,0,1,.76.44l9.81,14.23,9.81-14.23a1,1,0,0,1,.76-.44h13.26a.38.38,0,0,1,.43.44l.22,74.07c0,.36-.15.54-.43.54H875c-.29,0-.43-.18-.43-.54l-.11-55L863.1,350.13l-11.21-16.39-.11,55c0,.36-.15.54-.43.54Z"/><path d="M916.47,390.35a19.83,19.83,0,0,1-10.56-3,21.92,21.92,0,0,1-7.71-7.92,21.4,21.4,0,0,1-2.86-10.89l.21-53.91a.39.39,0,0,1,.44-.44h12.07a.38.38,0,0,1,.43.44v53.91a8.84,8.84,0,0,0,2.32,6.2,7.38,7.38,0,0,0,5.66,2.53,7.5,7.5,0,0,0,5.77-2.53,8.84,8.84,0,0,0,2.32-6.2V314.66a.38.38,0,0,1,.43-.44h12.08a.39.39,0,0,1,.43.44l.21,53.91a21.83,21.83,0,0,1-10.51,18.87A20.3,20.3,0,0,1,916.47,390.35Z"/><path d="M946.66,389.27c-.29,0-.43-.18-.43-.54l.11-74a.48.48,0,0,1,.54-.54h12a.47.47,0,0,1,.53.54l-.1,61.25h22.21a.48.48,0,0,1,.54.54v12.18a.48.48,0,0,1-.54.54Z"/><path d="M985.37,388.73l13.37-74.07a.51.51,0,0,1,.54-.44h15.63a.51.51,0,0,1,.54.44l12.83,74.07c.07.36-.07.54-.43.54h-12q-.43,0-.54-.54l-1.18-7.87H999.49l-1.18,7.87q-.12.54-.54.54h-12C985.51,389.27,985.37,389.09,985.37,388.73Zm16.28-19.41H1012l-4.42-30.3-.65-4-.43,4Z"/><path d="M1040.68,389.27c-.29,0-.43-.18-.43-.54V327.27h-14a.48.48,0,0,1-.54-.54l.11-12.07a.38.38,0,0,1,.43-.44h41c.36,0,.54.15.54.44v12.07c0,.36-.14.54-.43.54h-14.12l.1,61.46c0,.36-.14.54-.43.54Z"/><path d="M1091.9,390.35a19.74,19.74,0,0,1-10.62-3,22.7,22.7,0,0,1-7.71-7.87,20.74,20.74,0,0,1-2.92-10.83l.11-34.18a20.83,20.83,0,0,1,2.86-10.79,21.8,21.8,0,0,1,7.71-7.76A20.14,20.14,0,0,1,1091.9,313a19.78,19.78,0,0,1,10.56,2.91,22.15,22.15,0,0,1,7.6,7.76,20.83,20.83,0,0,1,2.86,10.79l.11,34.18a21.08,21.08,0,0,1-2.86,10.83,22.27,22.27,0,0,1-7.65,7.87A19.79,19.79,0,0,1,1091.9,390.35Zm0-13.05a7.48,7.48,0,0,0,5.66-2.64,8.64,8.64,0,0,0,2.42-6l-.11-34.18a8.61,8.61,0,0,0-2.26-6,7.38,7.38,0,0,0-5.71-2.48,7.73,7.73,0,0,0-5.72,2.42,8.38,8.38,0,0,0-2.37,6.1v34.18a8.6,8.6,0,0,0,2.37,6.09A7.55,7.55,0,0,0,1091.9,377.3Z"/><path d="M1121.65,389.27c-.28,0-.43-.18-.43-.54l.22-74.07a.38.38,0,0,1,.43-.44h21.78a21,21,0,0,1,10.73,2.86,21.88,21.88,0,0,1,7.81,7.66,21.79,21.79,0,0,1,1.73,18,22.74,22.74,0,0,1-2.8,5.4,18.64,18.64,0,0,1-2.91,3.28,22,22,0,0,1,5.82,15.21l.11,22.1a.48.48,0,0,1-.54.54h-12.19c-.29,0-.43-.11-.43-.32V366.63a9.4,9.4,0,0,0-2.75-6.74,9,9,0,0,0-6.74-2.86h-7.11l-.11,31.7c0,.36-.15.54-.43.54Zm12.73-45.18h9.27a8.31,8.31,0,0,0,5.93-2.48,8.27,8.27,0,0,0,.05-12,8.28,8.28,0,0,0-6-2.48h-9.27Z"/></svg>