<svg id="Layer_1" data-name="Layer 1" xmlns="http://www.w3.org/2000/svg" viewBox="0 0 930 730"><defs><style>.cls-1{fill:#c2bac0;}.cls-2{fill:#847d79;}.cls-3{fill:#25262d;}.cls-4{fill:#631b1b;}.cls-5{fill:#a5a2a4;}.cls-6{fill:#807978;}.cls-7{fill:#afafaf;}.cls-8{fill:#4c4c4c;}</style></defs><title>Artboard 1</title><path class="cls-1" d="M468,5C314.43,5,189.93,11.14,189.93,18.76V382.62c0,7.62,124.5,13.79,278.07,13.79s278.07-6.17,278.07-13.79V18.76C746.07,11.14,621.57,5,468,5Z"/><rect class="cls-2" x="236.66" y="55.53" width="462.68" height="290.33" rx="20"/><path d="M618.91,88.08c0-7.51-78.54-13.59-175.42-13.59S268.07,80.57,268.07,88.08c-6.35,0-11.5,50.42-11.5,112.61s5.15,112.61,11.5,112.61c0,7.51,78.53,13.59,175.42,13.59s175.42-6.08,175.42-13.59c6.34,0,11.49-50.42,11.49-112.61S625.25,88.08,618.91,88.08Z"/><circle cx="663.72" cy="297.98" r="11.11"/><circle cx="663.72" cy="254.65" r="11.11"/><rect class="cls-1" x="86.58" y="410.37" width="756.84" height="193.04" rx="20"/><rect class="cls-1" x="279.56" y="380.33" width="32.17" height="32.17"/><rect class="cls-1" x="620.44" y="382.62" width="32.17" height="32.17"/><rect x="338.54" y="433.35" width="476.47" height="148.61"/><rect x="125.58" y="523.08" width="6.13" height="58.88" rx="3.06"/><rect x="140.9" y="523.08" width="6.13" height="58.88" rx="3.06"/><rect x="156.22" y="523.08" width="6.13" height="58.88" rx="3.06"/><rect x="171.54" y="523.08" width="6.13" height="58.88" rx="3.06"/><rect x="186.87" y="523.08" width="6.13" height="58.88" rx="3.06"/><rect x="202.19" y="523.08" width="6.13" height="58.88" rx="3.06"/><rect x="218.4" y="523.08" width="6.13" height="58.88" rx="3.06"/><rect x="233.72" y="523.08" width="6.13" height="58.88" rx="3.06"/><rect x="249.04" y="523.08" width="6.13" height="58.88" rx="3.06"/><rect x="264.37" y="523.08" width="6.13" height="58.88" rx="3.06"/><rect x="279.69" y="523.08" width="6.13" height="58.88" rx="3.06"/><rect x="295.01" y="523.08" width="6.13" height="58.88" rx="3.06"/><rect x="309.11" y="523.08" width="6.13" height="58.88" rx="3.06"/><polygon class="cls-3" points="568.92 500.76 490.53 500.76 490.53 463.23 431.3 463.23 431.3 500.76 352.9 500.76 352.9 514.55 431.3 514.55 431.3 552.09 490.53 552.09 490.53 514.55 568.92 514.55 568.92 500.76"/><polygon class="cls-3" points="799.55 500.76 721.16 500.76 721.16 463.23 661.92 463.23 661.92 500.76 583.53 500.76 583.53 514.55 661.92 514.55 661.92 552.09 721.16 552.09 721.16 514.55 799.55 514.55 799.55 500.76"/><circle class="cls-4" cx="400.08" cy="546.98" r="5.11"/><circle class="cls-4" cx="630.4" cy="546.98" r="5.11"/><rect class="cls-5" x="8.96" y="685.2" width="912.08" height="39.83"/><polygon class="cls-1" points="103.95 590.21 8.96 685.2 199.5 685.2 104.51 590.21 103.95 590.21"/><polygon class="cls-1" points="826.05 590.21 825.49 590.21 104.51 590.21 199.5 685.2 730.5 685.2 921.04 685.2 826.05 590.21"/><polygon class="cls-6" points="817.01 601.32 808.03 601.32 121.97 601.32 112.99 601.32 40.22 674.09 194.74 674.09 735.26 674.09 889.78 674.09 817.01 601.32"/><rect class="cls-7" x="141.28" y="472.24" width="39.04" height="39.04" rx="5"/><path class="cls-8" d="M166.32,503.44a1.85,1.85,0,0,1-.55,1.39,2,2,0,0,1-1.41.54h-7.17a1.84,1.84,0,0,1-1.38-.54,1.87,1.87,0,0,1-.53-1.39v-8.87a1.92,1.92,0,0,1,.88-1.74l2.65-1.7-2.58-1.61a1.91,1.91,0,0,1-.88-1.75v-7.69a1.84,1.84,0,0,1,1.93-1.93h7a1.85,1.85,0,0,1,1.93,1.93v7.69a1.9,1.9,0,0,1-.9,1.75l-2.56,1.61,2.59,1.7a2,2,0,0,1,.94,1.74Zm-2.43-.21v-9l-3.1-2-3.1,2v9Zm-.07-15.13v-7.81h-6.06v7.81l3,2Z"/></svg>